<svg width="16" height="16" viewBox="0 0 16 16" fill="none" xmlns="http://www.w3.org/2000/svg">
<path fill-rule="evenodd" clip-rule="evenodd" d="M10.906 1.33337C13.1553 1.33337 14.6666 2.91229 14.6666 5.26206V10.738C14.6666 13.0878 13.1553 14.6667 10.906 14.6667H5.09393C2.84463 14.6667 1.33331 13.0878 1.33331 10.738V5.26206C1.33331 2.91229 2.84463 1.33337 5.09393 1.33337H10.906ZM10.906 2.26361H5.09393C3.37486 2.26361 2.26355 3.44004 2.26355 5.26206V10.738C2.26355 12.56 3.37486 13.7365 5.09393 13.7365H10.906C12.6257 13.7365 13.7364 12.56 13.7364 10.738V5.26206C13.7364 3.44004 12.6257 2.26361 10.906 2.26361ZM5.12934 6.4202C5.38609 6.4202 5.59446 6.62857 5.59446 6.88531V11.1396C5.59446 11.3963 5.38609 11.6047 5.12934 11.6047C4.8726 11.6047 4.66423 11.3963 4.66423 11.1396V6.88531C4.66423 6.62857 4.8726 6.4202 5.12934 6.4202ZM8.02361 4.38361C8.28035 4.38361 8.48872 4.59198 8.48872 4.84872V11.139C8.48872 11.3957 8.28035 11.6041 8.02361 11.6041C7.76686 11.6041 7.55849 11.3957 7.55849 11.139V4.84872C7.55849 4.59198 7.76686 4.38361 8.02361 4.38361ZM10.8703 8.66826C11.127 8.66826 11.3354 8.87663 11.3354 9.13337V11.139C11.3354 11.3957 11.127 11.6041 10.8703 11.6041C10.6136 11.6041 10.4052 11.3957 10.4052 11.139V9.13337C10.4052 8.87663 10.6136 8.66826 10.8703 8.66826Z" fill="#667085"/>
</svg>
