<svg width="24" height="24" viewBox="0 0 24 24" fill="none" xmlns="http://www.w3.org/2000/svg">
<path fill-rule="evenodd" clip-rule="evenodd" d="M1.5 6.26214C1.5 4.17786 3.20901 2.5 5.30177 2.5C7.39452 2.5 9.10354 4.17786 9.10354 6.26214C9.10354 8.34641 7.39452 10.0243 5.30177 10.0243C3.20901 10.0243 1.5 8.34641 1.5 6.26214ZM1.5 17.7621C1.5 15.6779 3.20901 14 5.30177 14C7.39452 14 9.10354 15.6779 9.10354 17.7621C9.10354 19.8464 7.39452 21.5243 5.30177 21.5243C3.20901 21.5243 1.5 19.8464 1.5 17.7621ZM5.30176 4.47705C4.2931 4.47705 3.4873 5.28312 3.4873 6.26216C3.4873 7.2412 4.2931 8.04726 5.30176 8.04726C6.31041 8.04726 7.11621 7.2412 7.11621 6.26216C7.11621 5.28312 6.31041 4.47705 5.30176 4.47705ZM5.30176 15.9771C4.2931 15.9771 3.4873 16.7831 3.4873 17.7622C3.4873 18.7412 4.2931 19.5473 5.30176 19.5473C6.31041 19.5473 7.11621 18.7412 7.11621 17.7622C7.11621 16.7831 6.31041 15.9771 5.30176 15.9771ZM13.3555 5.33765C12.8067 5.33765 12.3618 5.78022 12.3618 6.32617C12.3618 6.87211 12.8067 7.31468 13.3555 7.31468H20.8426C21.3914 7.31468 21.8362 6.87211 21.8362 6.32617C21.8362 5.78022 21.3914 5.33765 20.8426 5.33765H13.3555ZM13.3555 17C12.8067 17 12.3618 17.4426 12.3618 17.9885C12.3618 18.5345 12.8067 18.977 13.3555 18.977H20.8426C21.3914 18.977 21.8362 18.5345 21.8362 17.9885C21.8362 17.4426 21.3914 17 20.8426 17H13.3555Z" fill="#9EA9C1"/>
</svg>
