<svg width="16" height="16" viewBox="0 0 16 16" fill="none" xmlns="http://www.w3.org/2000/svg">
<path fill-rule="evenodd" clip-rule="evenodd" d="M3.86327 8.94013C6.92371 8.94013 7.05985 9.97808 7.05985 12.1367C7.05985 13.2183 7.05985 13.9877 6.60556 14.5511C6.08282 15.2002 5.13137 15.3333 3.86327 15.3333C2.59517 15.3333 1.64371 15.2002 1.12098 14.5511C0.666687 13.9877 0.666687 13.219 0.666687 12.1555L1.23079 12.1367H0.666687C0.666687 9.97808 0.802824 8.94013 3.86327 8.94013ZM12.1368 8.94013C15.1972 8.94013 15.3334 9.97808 15.3334 12.1367C15.3334 13.2183 15.3334 13.9877 14.8791 14.5511C14.3563 15.2002 13.4049 15.3333 12.1368 15.3333C10.8687 15.3333 9.91722 15.2002 9.39448 14.5511C8.94019 13.9877 8.94019 13.219 8.94019 12.1555L9.50429 12.1367H8.94019C8.94019 9.97808 9.07633 8.94013 12.1368 8.94013ZM4.01833 10.0687L3.86327 10.0683C1.90096 10.0683 1.80033 10.2091 1.79517 11.8562L1.79549 12.4979C1.79905 13.153 1.82401 13.6262 1.99872 13.8441C2.19804 14.0908 2.78997 14.2051 3.86327 14.2051C4.93657 14.2051 5.5285 14.09 5.72782 13.8433C5.93164 13.5898 5.93164 12.9881 5.93164 12.1548C5.93164 10.2743 5.93164 10.0775 4.01833 10.0687ZM12.2918 10.0687L12.1368 10.0683C10.1745 10.0683 10.0738 10.2091 10.0687 11.8562L10.069 12.4979C10.0726 13.153 10.0975 13.6262 10.2722 13.8441C10.4715 14.0908 11.0635 14.2051 12.1368 14.2051C13.2101 14.2051 13.802 14.09 14.0013 13.8433C14.2051 13.5898 14.2051 12.9881 14.2051 12.1548C14.2051 10.2743 14.2051 10.0775 12.2918 10.0687ZM3.86327 0.666626C6.92371 0.666626 7.05985 1.70457 7.05985 3.86321C7.05985 4.94478 7.05985 5.71422 6.60556 6.27757C6.08282 6.92666 5.13137 7.05979 3.86327 7.05979C2.59517 7.05979 1.64371 6.92666 1.12098 6.27757C0.666687 5.71422 0.666687 4.94553 0.666687 3.88201L1.23079 3.86321H0.666687C0.666687 1.70457 0.802824 0.666626 3.86327 0.666626ZM12.1368 0.666626C15.1972 0.666626 15.3334 1.70457 15.3334 3.86321C15.3334 4.94478 15.3334 5.71422 14.8791 6.27757C14.3563 6.92666 13.4049 7.05979 12.1368 7.05979C10.8687 7.05979 9.91722 6.92666 9.39448 6.27757C8.94019 5.71422 8.94019 4.94553 8.94019 3.88201L9.50429 3.86321H8.94019C8.94019 1.70457 9.07633 0.666626 12.1368 0.666626ZM4.01833 1.79517L3.86327 1.79483C1.90096 1.79483 1.80033 1.93564 1.79517 3.5827L1.79549 4.22437C1.79905 4.87945 1.82401 5.35265 1.99872 5.57056C2.19804 5.81726 2.78997 5.93158 3.86327 5.93158C4.93657 5.93158 5.5285 5.81651 5.72782 5.56981C5.93164 5.31634 5.93164 4.71463 5.93164 3.88126C5.93164 2.00076 5.93164 1.80402 4.01833 1.79517ZM12.2918 1.79517L12.1368 1.79483C10.1745 1.79483 10.0738 1.93564 10.0687 3.5827L10.069 4.22437C10.0726 4.87945 10.0975 5.35265 10.2722 5.57056C10.4715 5.81726 11.0635 5.93158 12.1368 5.93158C13.2101 5.93158 13.802 5.81651 14.0013 5.56981C14.2051 5.31634 14.2051 4.71463 14.2051 3.88126C14.2051 2.00076 14.2051 1.80402 12.2918 1.79517Z" fill="#443DF6"/>
</svg>
