<svg width="14" height="16" viewBox="0 0 14 16" fill="none" xmlns="http://www.w3.org/2000/svg">
<path fill-rule="evenodd" clip-rule="evenodd" d="M9.80868 0.666626C12.1164 0.666626 13.6666 2.25263 13.6666 4.61285V11.3871C13.6666 13.7679 12.1641 15.3163 9.83877 15.3311L4.19202 15.3333C1.88428 15.3333 0.333313 13.7473 0.333313 11.3871V4.61285C0.333313 2.23127 1.83584 0.683569 4.16119 0.669573L9.80794 0.666626H9.80868ZM9.80868 1.7716L4.16486 1.77454C2.45608 1.78486 1.43433 2.84563 1.43433 4.61285V11.3871C1.43433 13.1661 2.46562 14.2283 4.19128 14.2283L9.8351 14.2261C11.5439 14.2158 12.5656 13.1536 12.5656 11.3871V4.61285C12.5656 2.83384 11.5351 1.7716 9.80868 1.7716ZM9.66709 10.592C9.97097 10.592 10.2176 10.8395 10.2176 11.1445C10.2176 11.4495 9.97097 11.697 9.66709 11.697H4.36752C4.06364 11.697 3.81701 11.4495 3.81701 11.1445C3.81701 10.8395 4.06364 10.592 4.36752 10.592H9.66709ZM9.66709 7.50803C9.97097 7.50803 10.2176 7.75554 10.2176 8.06051C10.2176 8.36548 9.97097 8.613 9.66709 8.613H4.36752C4.06364 8.613 3.81701 8.36548 3.81701 8.06051C3.81701 7.75554 4.06364 7.50803 4.36752 7.50803H9.66709ZM6.3895 4.43119C6.69338 4.43119 6.94001 4.67871 6.94001 4.98368C6.94001 5.28865 6.69338 5.53617 6.3895 5.53617H4.3673C4.06342 5.53617 3.81679 5.28865 3.81679 4.98368C3.81679 4.67871 4.06342 4.43119 4.3673 4.43119H6.3895Z" fill="#667085"/>
</svg>
