<svg width="14" height="14" viewBox="0 0 14 14" fill="none" xmlns="http://www.w3.org/2000/svg">
<path d="M10.5659 5.7796C10.73 5.569 10.6912 5.26566 10.4793 5.10208C10.2674 4.93721 9.96382 4.9765 9.79973 5.18838L8.20601 7.23831L6.38425 5.8118C6.28283 5.73129 6.15492 5.69523 6.02442 5.71197C5.89651 5.72807 5.77959 5.79441 5.70077 5.89681L3.76725 8.40207C3.60381 8.61331 3.64386 8.91665 3.85576 9.07959C3.94361 9.14656 4.04762 9.17941 4.15099 9.17941C4.29634 9.17941 4.43975 9.11436 4.53536 8.99071L6.17042 6.87251L7.99089 8.29838C8.09296 8.3776 8.22087 8.41495 8.35007 8.39756C8.47799 8.3821 8.59427 8.31577 8.67308 8.21401L10.5659 5.7796Z" fill="#667085"/>
<path fill-rule="evenodd" clip-rule="evenodd" d="M13.6666 4.26206C13.6666 1.91229 12.1553 0.333374 9.90603 0.333374H4.09393C1.84463 0.333374 0.333313 1.91229 0.333313 4.26206V9.73803C0.333313 12.0878 1.84463 13.6667 4.09393 13.6667H9.90603C12.1553 13.6667 13.6666 12.0878 13.6666 9.73803V4.26206ZM4.09393 1.26361H9.90603C11.6257 1.26361 12.7364 2.44004 12.7364 4.26206V9.73803C12.7364 11.56 11.6257 12.7365 9.90603 12.7365H4.09393C2.37486 12.7365 1.26355 11.56 1.26355 9.73803V4.26206C1.26355 2.44004 2.37486 1.26361 4.09393 1.26361Z" fill="#667085"/>
</svg>
